<?xml version="1.0" standalone="no"?>
<!DOCTYPE svg PUBLIC "-//W3C//DTD SVG 20010904//EN"
 "http://www.w3.org/TR/2001/REC-SVG-20010904/DTD/svg10.dtd">
<svg version="1.0" xmlns="http://www.w3.org/2000/svg"
 width="999.000000pt" height="999.000000pt" viewBox="0 0 999.000000 999.000000"
 preserveAspectRatio="xMidYMid meet">
<metadata>
Created by potrace 1.14, written by Peter Selinger 2001-2017
</metadata>
<g transform="translate(0.000000,999.000000) scale(0.100000,-0.100000)"
fill="#000000" stroke="none">
<path d="M4951 7185 c-23 -36 -51 -82 -63 -103 -23 -41 -104 -179 -129 -220
-73 -118 -90 -150 -95 -168 -3 -12 29 -305 71 -650 73 -600 84 -689 119 -989
9 -71 27 -222 41 -335 14 -113 25 -221 25 -241 0 -33 -2 -36 -27 -34 -16 1
-41 3 -58 4 -16 1 -36 5 -42 9 -15 9 -15 8 -168 1227 -64 506 -118 930 -121
942 -6 20 -107 120 -179 174 -32 25 -157 133 -215 186 -35 33 -67 49 -77 40
-2 -3 -40 -137 -84 -299 -44 -161 -84 -307 -89 -323 -9 -27 -2 -51 54 -190 35
-88 68 -171 74 -185 6 -14 64 -158 127 -320 167 -423 265 -671 280 -705 56
-128 156 -399 153 -417 -4 -32 -34 -34 -82 -7 -78 43 -91 64 -181 289 -48 118
-102 251 -120 295 -19 44 -70 170 -115 280 -45 110 -85 209 -90 220 -23 49
-220 536 -220 543 0 11 -46 62 -57 62 -5 0 -110 34 -233 75 -132 44 -233 72
-245 69 -21 -5 -22 -12 -28 -207 -4 -111 -7 -263 -7 -338 0 -147 1 -151 74
-240 116 -141 176 -220 176 -228 0 -6 4 -11 8 -11 4 0 26 -23 47 -52 22 -28
44 -56 50 -62 40 -44 137 -163 228 -281 4 -5 18 -22 32 -37 13 -15 36 -45 52
-65 15 -21 30 -40 33 -43 3 -3 21 -25 40 -50 45 -58 57 -73 100 -125 47 -57
59 -72 100 -125 19 -25 38 -46 43 -48 4 -2 7 -10 7 -17 0 -7 7 -15 15 -18 8
-4 25 -23 39 -44 13 -21 36 -50 50 -65 14 -15 26 -31 26 -35 0 -4 27 -37 60
-73 33 -36 60 -68 60 -72 0 -5 8 -16 18 -26 32 -35 52 -62 52 -72 0 -6 4 -10
9 -10 5 0 31 -28 57 -62 26 -35 51 -64 56 -66 4 -2 8 -8 8 -13 0 -15 79 -94
87 -86 4 4 -12 54 -36 110 -93 223 -123 306 -118 321 15 38 135 -3 162 -55 9
-16 32 -71 51 -121 47 -123 64 -158 78 -158 10 0 10 22 0 98 -7 53 -13 115
-14 136 l0 39 53 -7 c28 -3 59 -6 68 -6 12 0 18 -14 23 -52 13 -104 17 -118
36 -118 19 0 23 14 36 116 l6 51 52 7 c86 10 86 10 86 -31 -1 -21 -7 -82 -14
-135 -10 -76 -10 -98 0 -98 14 0 31 35 78 158 19 50 42 105 51 121 27 52 147
93 162 55 5 -15 -25 -98 -118 -321 -24 -56 -40 -106 -36 -110 7 -6 87 69 87
82 0 10 113 145 121 145 5 0 9 4 9 10 0 10 20 37 53 72 9 10 17 21 17 26 0 4
25 34 55 67 30 33 55 63 55 67 0 7 63 85 114 141 14 16 26 32 26 37 0 4 3 10
8 12 4 2 23 23 42 48 41 53 53 68 100 125 43 52 55 67 100 125 19 25 37 47 40
50 3 3 18 22 33 43 16 20 38 48 50 62 12 13 32 37 44 52 12 15 50 63 85 107
34 43 83 104 107 135 23 31 62 77 86 103 24 26 44 51 46 56 4 10 27 38 127
160 125 152 122 146 122 301 0 75 -3 227 -7 338 -6 195 -7 202 -28 207 -12 3
-113 -25 -245 -69 -123 -41 -229 -75 -235 -75 -20 0 -48 -51 -102 -183 -90
-221 -217 -531 -304 -742 -45 -110 -126 -308 -179 -439 -102 -251 -123 -285
-196 -325 -48 -27 -78 -25 -82 7 -3 18 97 290 153 417 7 17 38 93 68 170 31
77 117 295 191 485 75 190 141 356 147 370 6 14 40 97 75 184 56 140 63 163
54 190 -5 17 -45 163 -89 324 -44 162 -82 296 -84 299 -10 9 -42 -7 -77 -40
-58 -53 -183 -161 -215 -186 -72 -54 -173 -154 -179 -174 -3 -12 -57 -436
-121 -942 -153 -1219 -153 -1218 -168 -1227 -6 -4 -25 -8 -42 -9 -16 -1 -42
-3 -57 -4 -26 -2 -28 1 -28 34 0 20 11 128 25 241 14 113 32 264 41 335 35
300 46 389 119 989 42 345 74 638 71 650 -5 18 -22 50 -95 168 -25 41 -106
179 -129 220 -43 77 -104 168 -112 168 -5 0 -27 -29 -49 -65z"/>
<path d="M4416 3803 c-10 -62 -7 -120 10 -196 40 -173 139 -317 285 -412 100
-66 175 -89 289 -89 114 0 189 23 289 89 205 133 330 393 295 608 -8 44 -17
46 -46 10 -95 -118 -201 -192 -332 -232 -98 -30 -314 -30 -412 0 -131 40 -237
114 -332 232 -29 36 -38 34 -46 -10z"/>
<path d="M4698 3823 c7 -3 16 -2 19 1 4 3 -2 6 -13 5 -11 0 -14 -3 -6 -6z"/>
<path d="M5288 3823 c7 -3 16 -2 19 1 4 3 -2 6 -13 5 -11 0 -14 -3 -6 -6z"/>
<path d="M4377 3369 c-17 -127 60 -334 172 -461 59 -67 192 -152 286 -184 165
-56 328 -28 492 82 163 109 260 264 292 463 11 70 4 141 -15 141 -7 0 -29 -35
-50 -77 -70 -147 -216 -265 -379 -308 -79 -20 -271 -20 -350 0 -163 43 -309
161 -379 308 -21 42 -43 77 -50 77 -8 0 -16 -17 -19 -41z"/>
</g>
</svg>
